<svg width="62px" height="112px" viewBox="0 0 62 112" version="1.1" xmlns="http://www.w3.org/2000/svg"
>
    <defs></defs>
    <g id="Page-1" stroke="none" stroke-width="1" fill="none" fill-rule="evenodd">
        <g id="Group-4-Copy-2"
           transform="translate(30.000000, 55.000000) rotate(24.000000) translate(-30.000000, -55.000000) translate(21.000000, -8.000000)">
            <path d="M5.34288121,126 L15.4665518,114.320027 C16.1778161,106.988476 16.1778161,99.9173561 15.4665518,93.1066676 C14.7552875,86.2959792 13.4532389,76.5937566 11.5604059,64 L5.34288121,64 C5.49209021,71.7281031 5.49209021,77.2096933 5.34288121,80.4447706 C5.11925605,85.293303 4,89.5330576 4,93.1066676 C4,100.256898 4.44762707,111.221342 5.34288121,126 Z"
                  id="Path-13" stroke="#2D2E32" fill="#2D2E32"></path>
            <path d="M4.34288121,63 L14.4665518,51.3200274 C15.1778161,43.988476 15.1778161,36.9173561 14.4665518,30.1066676 C13.7552875,23.2959792 12.4532389,13.5937566 10.5604059,1 L4.34288121,1 C4.49209021,8.7281031 4.49209021,14.2096933 4.34288121,17.4447706 C4.11925605,22.293303 3,26.5330576 3,30.1066676 C3,37.2568976 3.44762707,48.2213417 4.34288121,63 Z"
                  id="Path-13-Copy" stroke="#2D2E32" fill="#2D2E32"
                  transform="translate(9.000000, 32.000000) scale(-1, -1) rotate(4.000000) translate(-9.000000, -32.000000) "></path>
            <ellipse id="Oval-3" stroke="#4C4646" fill="#2D2E32" cx="8.5" cy="64" rx="7.5" ry="8"></ellipse>
            <circle id="Oval-4" stroke="#6C7A8C" fill="#F0EFEF" cx="8.5" cy="63.5" r="1"></circle>
        </g>
    </g>
</svg>
